@startuml
skinparam classAttributeIconSize 0

package ch.giuliobosco.freqline.servlets {
    abstract BaseServlet {
        
    }

    package data {
        class BaseDataServlet {
            - int getId(HttpServletRequest request)
            # void doGet(HttpServletRequest request, HttpServletResponse response)
            - void doGetById(HttpServletRequest request, HttpServletResponse response, DbDao dao)
            - void doGetAll(HttpServletResponse response, DbDao dao)
            # void doDelete(HttpServletRequest request, HttpServletResponse response)
            # void doPost(HttpServletRequest request, HttpServletResponse response)
            - void executePost(HttpServletResponse response, ServletRequestAnalyser sra, int actionBy)
            # void doPut(HttpServletRequest request, HttpServletResponse response)
            - void executePut(HttpServletRequest request, HttpServletResponse response, ServletRequestAnalyser sra)
            # String[] getRequiredPutParameters()
            # String[] getRequiredPostParameters()
            - DbDao getDao(int actionBy)
            - void initConnector()
            # Base getBase(Map<String, String> params, DbDao dao, String key)
            - boolean hasRequiredPermission(int userId, String requiredPermission)
            - boolean hasRequiredPermission(User user, String requiredPermission)
            # {abstract} Base mapToBase(Map<String, String[]> params, Base base, int actionBy)
            # {abstract} Class<? extends Base> getModel()
            # {abstract} DbDao getDao(JdbcConnector connector, int actionBy)
            # {abstract} BaseJson getJson(Base base)
            # {abstract} String requiredGetPermission()
            # {abstract} String requiredPostPermission()
            # {abstract} String requiredPutPermission()
            # {abstract} String requiredDeletePermission()
        }
        BaseServlet <|-- BaseDataServlet

        class GeneratorServlet {

        }
        BaseDataServlet <|-- GeneratorServlet

        class GroupPermissionServlet {

        }
        BaseDataServlet <|-- GroupPermissionServlet

        class GroupServlet {

        }
        BaseDataServlet <|-- GroupServlet

        class MicServlet {

        }
        BaseDataServlet <|-- MicServlet

        class PermissionServlet {

        }
        BaseDataServlet <|-- PermissionServlet

        class RemoteServlet {

        }
        BaseDataServlet <|-- RemoteServlet

        class UserGroupServlet {

        }
        BaseDataServlet <|-- UserGroupServlet

        class UserServlet {

        }
        BaseDataServlet <|-- UserServlet
    }
}

@enduml